<svg id="visual" viewBox="0 0 960 540" width="960" height="540" xmlns="http://www.w3.org/2000/svg" xmlns:xlink="http://www.w3.org/1999/xlink" version="1.1"><rect x="0" y="0" width="960" height="540" fill="#002233"></rect><path d="M0 70L22.8 75.7C45.7 81.3 91.3 92.7 137 91.2C182.7 89.7 228.3 75.3 274 69.2C319.7 63 365.3 65 411.2 68C457 71 503 75 548.8 77.3C594.7 79.7 640.3 80.3 686 77.2C731.7 74 777.3 67 823 67.3C868.7 67.7 914.3 75.3 937.2 79.2L960 83L960 0L937.2 0C914.3 0 868.7 0 823 0C777.3 0 731.7 0 686 0C640.3 0 594.7 0 548.8 0C503 0 457 0 411.2 0C365.3 0 319.7 0 274 0C228.3 0 182.7 0 137 0C91.3 0 45.7 0 22.8 0L0 0Z" fill="#0066FF" stroke-linecap="round" stroke-linejoin="miter"></path></svg>